<?xml version="1.0" standalone="no"?>
<!DOCTYPE svg PUBLIC "-//W3C//DTD SVG 20010904//EN"
 "http://www.w3.org/TR/2001/REC-SVG-20010904/DTD/svg10.dtd">
<svg version="1.0" xmlns="http://www.w3.org/2000/svg"
 width="108.000000pt" height="99.000000pt" viewBox="0 0 108.000000 99.000000"
 preserveAspectRatio="xMidYMid meet">

<g transform="translate(0.000000,99.000000) scale(0.100000,-0.100000)"
fill="#000000" stroke="none">
<path d="M733 903 c-7 -2 -13 -11 -13 -19 0 -9 41 -135 90 -282 50 -146 90
-279 90 -295 l0 -28 -31 18 c-84 50 -148 144 -149 219 0 28 -5 44 -15 48 -23
8 -45 -4 -45 -25 0 -12 -5 -16 -14 -13 -8 3 -13 11 -10 19 6 15 -20 27 -41 19
-11 -5 -15 -23 -15 -76 l0 -70 -22 14 c-17 12 -24 27 -26 61 -4 55 -24 77 -50
54 -12 -11 -22 -13 -34 -6 -11 6 -21 5 -32 -6 -13 -14 -13 -19 5 -49 33 -56
24 -56 -204 6 -60 16 -115 27 -123 24 -10 -4 -14 -22 -14 -61 0 -50 2 -56 26
-65 14 -6 49 -10 78 -10 61 0 69 -5 53 -32 -10 -16 -9 -22 7 -34 11 -8 28 -14
38 -14 10 0 39 -19 63 -41 59 -54 73 -48 77 33 3 63 3 63 33 63 l30 0 5 -70
c4 -62 7 -70 25 -70 17 0 21 9 28 73 8 65 11 73 34 78 36 9 51 -12 58 -81 9
-91 13 -102 46 -140 52 -59 72 -43 84 68 4 31 9 57 12 57 3 0 23 -16 44 -35
42 -38 89 -46 122 -21 28 22 22 107 -17 227 -52 157 -153 445 -160 458 -8 12
-13 12 -33 4z m-68 -482 c7 -12 -12 -24 -25 -16 -11 7 -4 25 10 25 5 0 11 -4
15 -9z m-318 -65 c12 -12 -3 -12 -47 1 l-45 13 43 -4 c24 -2 46 -7 49 -10z"/>
</g>
</svg>
