<?xml version="1.0" standalone="no"?>
<!DOCTYPE svg PUBLIC "-//W3C//DTD SVG 20010904//EN"
 "http://www.w3.org/TR/2001/REC-SVG-20010904/DTD/svg10.dtd">
<svg version="1.0" xmlns="http://www.w3.org/2000/svg"
 width="66.000000pt" height="114.000000pt" viewBox="0 0 66.000000 114.000000"
 preserveAspectRatio="xMidYMid meet">

<g transform="translate(0.000000,114.000000) scale(0.100000,-0.100000)"
fill="#000000" stroke="none">
<path d="M276 879 c-32 -37 -34 -80 -5 -120 31 -44 22 -73 -22 -77 l-36 -3 -9
108 c-9 106 -9 108 -34 108 l-25 0 4 -125 c5 -160 15 -189 67 -190 31 0 35
-18 24 -128 -5 -53 -10 -123 -10 -155 0 -52 -2 -58 -26 -67 -54 -21 -9 -61 51
-46 18 5 24 15 29 53 14 95 18 113 31 113 17 0 25 -33 25 -106 0 -67 11 -84
52 -84 20 0 28 5 28 18 0 10 -4 22 -9 28 -11 11 -20 111 -23 241 -1 95 14 143
47 143 12 0 15 -24 17 -122 l3 -123 25 0 25 0 -3 155 c-3 175 -5 180 -78 180
-37 0 -42 3 -47 27 -3 17 0 31 9 38 25 18 33 68 18 105 -29 67 -85 80 -128 29z"/>
</g>
</svg>
