<?xml version="1.0" standalone="no"?>
<!DOCTYPE svg PUBLIC "-//W3C//DTD SVG 20010904//EN"
 "http://www.w3.org/TR/2001/REC-SVG-20010904/DTD/svg10.dtd">
<svg version="1.0" xmlns="http://www.w3.org/2000/svg"
 width="207.000000pt" height="87.000000pt" viewBox="0 0 207.000000 87.000000"
 preserveAspectRatio="xMidYMid meet">

<g transform="translate(0.000000,87.000000) scale(0.100000,-0.100000)"
fill="#000000" stroke="none">
<path d="M1223 714 c-24 -24 -25 -31 -20 -88 3 -35 7 -69 9 -77 2 -9 -6 -14
-22 -14 -22 0 -25 6 -35 57 -5 32 -15 62 -21 68 -11 11 -103 17 -727 51 -223
12 -247 9 -247 -26 0 -36 31 -42 290 -55 504 -25 633 -34 638 -47 3 -10 -93
-13 -458 -13 -299 0 -468 -4 -481 -10 -21 -12 -25 -40 -7 -58 9 -9 128 -12
468 -13 507 -2 500 -6 -75 -40 -214 -12 -400 -26 -412 -30 -27 -10 -32 -56 -7
-66 9 -3 150 2 313 12 272 17 416 20 656 16 50 -1 120 1 158 5 63 6 67 5 67
-15 0 -21 -4 -21 -178 -21 -125 0 -182 -4 -190 -12 -14 -14 -16 -44 -2 -53 5
-3 101 -6 214 -7 155 -1 208 2 220 11 11 9 16 30 16 63 0 47 1 50 23 44 12 -3
25 -6 30 -6 10 0 9 -30 -3 -87 l-11 -48 -97 -3 c-357 -10 -494 -19 -503 -33
-18 -27 -6 -54 26 -58 43 -5 585 19 615 27 21 6 28 18 40 72 15 63 17 65 49
68 23 2 37 -2 46 -14 12 -17 19 -17 91 -5 91 14 155 31 168 43 16 13 23 10 61
-23 27 -24 41 -30 60 -25 36 9 33 46 -5 74 -32 24 -39 49 -15 58 34 13 25 74
-12 74 -7 0 -41 -23 -74 -50 -33 -28 -63 -50 -67 -51 -8 -1 -20 -3 -93 -18
-53 -11 -59 -10 -92 11 -19 13 -58 35 -86 50 l-51 28 0 75 c0 68 -9 91 -25 65
-11 -18 -25 -10 -25 15 0 31 -23 33 -44 3 -21 -29 -20 -92 0 -112 13 -14 13
-17 1 -22 -8 -3 -34 -4 -58 -2 -43 3 -43 3 -47 46 -2 25 1 42 7 42 16 0 41 55
41 90 0 37 -13 38 -46 3 l-25 -28 4 43 c6 50 -10 56 -50 16z"/>
</g>
</svg>
