<?xml version="1.0" standalone="no"?>
<!DOCTYPE svg PUBLIC "-//W3C//DTD SVG 20010904//EN"
 "http://www.w3.org/TR/2001/REC-SVG-20010904/DTD/svg10.dtd">
<svg version="1.0" xmlns="http://www.w3.org/2000/svg"
 width="139.000000pt" height="181.000000pt" viewBox="0 0 139.000000 181.000000"
 preserveAspectRatio="xMidYMid meet">

<g transform="translate(0.000000,181.000000) scale(0.100000,-0.100000)"
fill="#000000" stroke="none">
<path d="M664 1595 c-3 -8 -2 -83 3 -167 8 -131 7 -157 -6 -180 -15 -25 -14
-29 7 -57 12 -16 18 -32 14 -34 -4 -2 -83 -5 -175 -6 -144 -2 -176 -6 -215
-23 -83 -36 -152 -82 -152 -100 0 -16 5 -19 28 -17 4 0 9 -10 12 -23 9 -35 34
-33 120 11 44 22 80 39 80 37 0 -2 -29 -22 -65 -45 -45 -28 -65 -46 -65 -61 0
-25 20 -26 70 0 47 24 63 26 32 4 -18 -12 -20 -19 -12 -35 14 -24 25 -24 58 2
l26 20 8 -20 c4 -12 13 -21 19 -21 7 0 45 25 85 55 77 58 94 65 94 39 0 -25
-18 -52 -81 -119 -55 -58 -65 -64 -112 -70 -68 -10 -97 -21 -97 -39 0 -19 27
-28 66 -20 43 8 43 1 -1 -26 -34 -21 -44 -43 -26 -54 5 -4 30 3 56 14 59 25
62 25 69 -5 5 -18 13 -25 31 -25 29 0 30 7 11 75 l-13 51 43 49 c23 27 45 48
47 45 4 -5 -6 -43 -110 -418 -47 -169 -54 -205 -42 -213 32 -20 31 -20 79 148
35 123 60 176 75 161 3 -3 -4 -76 -15 -162 -11 -86 -20 -161 -20 -166 0 -6 11
-10 25 -10 19 0 25 6 29 33 3 17 10 61 16 97 17 105 21 120 32 120 7 0 8 -37
3 -114 -9 -146 0 -179 39 -140 12 11 16 38 17 102 1 93 4 89 27 -55 6 -39 11
-48 27 -48 16 0 21 9 26 45 3 25 7 35 7 23 1 -12 11 -24 23 -28 38 -12 42 8
21 96 -31 129 -34 149 -24 149 5 0 27 -46 48 -102 39 -101 66 -137 83 -110 5
9 -5 49 -26 105 -192 508 -193 514 -101 405 l39 -47 -22 -30 c-12 -16 -18 -34
-15 -40 9 -14 46 -15 46 -1 0 19 24 10 56 -21 32 -31 54 -32 54 -2 0 11 6 14
24 9 15 -4 28 0 37 10 11 14 10 18 -6 30 -10 8 -22 14 -26 14 -4 0 -9 10 -11
22 -2 18 -12 24 -43 29 -33 5 -50 18 -97 70 -32 35 -58 67 -58 72 0 4 31 -14
69 -39 38 -25 74 -43 80 -39 24 14 8 42 -45 80 -31 22 -63 46 -72 53 -24 18
47 -17 80 -39 34 -25 59 -24 65 1 6 24 7 24 38 4 51 -33 75 8 28 46 -16 12
-20 17 -8 12 11 -5 37 -17 57 -27 21 -9 45 -15 53 -11 31 11 16 34 -47 70 -27
15 -48 30 -48 32 0 5 52 -15 65 -26 5 -4 27 -15 47 -23 33 -14 39 -14 52 -1 9
8 13 21 10 28 -4 9 3 16 18 18 26 3 31 26 8 39 -8 5 -38 22 -66 37 -88 51
-115 56 -306 54 -170 -2 -178 -1 -178 18 0 10 5 22 10 25 15 9 12 46 -4 64
-10 11 -18 66 -26 176 -6 88 -14 163 -16 167 -8 13 -34 9 -40 -7z m-335 -519
c-2 -2 -15 -9 -29 -15 -24 -11 -24 -11 -6 3 16 13 49 24 35 12z m-59 -30 c0
-2 -7 -7 -16 -10 -8 -3 -12 -2 -9 4 6 10 25 14 25 6z m557 -758 c-3 -8 -6 -5
-6 6 -1 11 2 17 5 13 3 -3 4 -12 1 -19z"/>
</g>
</svg>
