<?xml version="1.0" standalone="no"?>
<!DOCTYPE svg PUBLIC "-//W3C//DTD SVG 20010904//EN"
 "http://www.w3.org/TR/2001/REC-SVG-20010904/DTD/svg10.dtd">
<svg version="1.0" xmlns="http://www.w3.org/2000/svg"
 width="292.000000pt" height="93.000000pt" viewBox="0 0 292.000000 93.000000"
 preserveAspectRatio="xMidYMid meet">
<metadata>
Created by potrace 1.16, written by Peter Selinger 2001-2019
</metadata>
<g transform="translate(0.000000,93.000000) scale(0.100000,-0.100000)"
fill="#000000" stroke="none">
<path d="M287 833 c-12 -11 -8 -22 19 -47 36 -32 26 -52 -29 -60 -50 -8 -77
-30 -59 -48 8 -8 24 -7 58 1 51 13 68 9 35 -9 -12 -6 -21 -20 -21 -32 0 -17 5
-19 27 -15 15 3 34 0 43 -5 13 -8 26 -4 58 17 39 25 48 27 113 23 85 -6 108
-28 76 -72 -11 -15 -43 -20 -187 -32 -214 -18 -220 -19 -220 -44 0 -11 3 -20
8 -20 4 0 86 -7 182 -15 143 -12 177 -17 187 -31 32 -44 6 -64 -79 -64 -49 0
-80 6 -108 20 -22 11 -46 20 -54 20 -22 0 -30 -19 -15 -36 11 -14 8 -15 -32
-13 -39 3 -44 1 -47 -19 -3 -17 2 -22 19 -22 18 0 19 -2 9 -15 -21 -25 -4 -48
30 -40 19 4 30 3 30 -4 0 -6 -4 -11 -10 -11 -5 0 -10 -9 -10 -20 0 -15 7 -20
28 -20 55 0 98 20 129 58 24 29 42 41 84 51 63 16 79 26 79 52 0 11 10 23 23
28 12 5 165 24 339 41 l317 32 50 -42 c31 -26 56 -40 66 -37 23 9 18 26 -15
54 -17 14 -29 27 -27 29 16 16 350 34 812 44 297 7 560 15 585 19 33 5 46 12
48 25 4 18 -9 18 -400 10 -498 -11 -878 -11 -982 0 l-79 8 31 30 c32 29 43 68
19 68 -7 0 -33 -20 -57 -45 -52 -53 -36 -52 -350 -30 -339 24 -340 24 -340 45
0 28 -20 37 -91 45 -65 7 -67 8 -118 66 -29 32 -56 59 -61 59 -5 0 -15 -7 -23
-15 -13 -13 -18 -12 -40 5 -26 21 -39 24 -50 13z"/>
</g>
</svg>
