<?xml version="1.0" standalone="no"?>
<!DOCTYPE svg PUBLIC "-//W3C//DTD SVG 20010904//EN"
 "http://www.w3.org/TR/2001/REC-SVG-20010904/DTD/svg10.dtd">
<svg version="1.0" xmlns="http://www.w3.org/2000/svg"
 width="116.000000pt" height="91.000000pt" viewBox="0 0 116.000000 91.000000"
 preserveAspectRatio="xMidYMid meet">
<metadata>
Created by potrace 1.16, written by Peter Selinger 2001-2019
</metadata>
<g transform="translate(0.000000,91.000000) scale(0.100000,-0.100000)"
fill="#000000" stroke="none">
<path d="M473 808 c-5 -7 -29 -56 -53 -108 -24 -52 -51 -106 -61 -120 -12 -16
-55 -41 -124 -69 -104 -43 -128 -62 -108 -82 7 -7 38 2 91 26 44 19 89 35 99
35 10 0 56 -22 103 -50 l84 -49 -3 -44 c-1 -24 -6 -71 -11 -103 -6 -47 -5 -62
7 -74 13 -13 16 -13 28 4 8 10 22 42 31 70 27 81 62 134 108 161 68 40 77 36
110 -51 29 -75 48 -96 68 -76 7 7 5 40 -6 107 -9 54 -16 98 -14 100 2 1 50 9
108 19 136 22 140 24 140 47 0 16 -7 19 -50 19 -45 0 -50 2 -56 26 -11 42 7
76 46 89 34 12 51 37 31 49 -9 6 -55 -1 -165 -26 -35 -8 -66 -25 -112 -64 -59
-50 -67 -54 -116 -54 -28 0 -89 -5 -135 -12 -45 -7 -86 -9 -89 -5 -4 4 16 57
45 119 39 84 48 113 39 120 -18 11 -24 10 -35 -4z"/>
</g>
</svg>
