<?xml version="1.0" standalone="no"?>
<!DOCTYPE svg PUBLIC "-//W3C//DTD SVG 20010904//EN"
 "http://www.w3.org/TR/2001/REC-SVG-20010904/DTD/svg10.dtd">
<svg version="1.0" xmlns="http://www.w3.org/2000/svg"
 width="134.000000pt" height="138.000000pt" viewBox="0 0 134.000000 138.000000"
 preserveAspectRatio="xMidYMid meet">

<g transform="translate(0.000000,138.000000) scale(0.100000,-0.100000)"
fill="#000000" stroke="none">
<path d="M702 1248 c-8 -8 -12 -45 -12 -106 0 -92 0 -93 -22 -86 -13 4 -46 25
-75 47 -44 33 -56 37 -68 27 -26 -21 -17 -36 48 -84 141 -106 242 -226 235
-283 -5 -42 -30 -39 -101 11 -107 76 -144 116 -168 178 -13 34 -29 60 -40 63
-40 13 -50 -18 -24 -69 19 -37 13 -43 -28 -28 -26 10 -34 9 -46 -2 -21 -22 -9
-39 62 -80 36 -21 87 -57 113 -81 42 -36 47 -44 36 -58 -8 -9 -26 -18 -42 -22
-24 -5 -41 4 -119 64 -132 101 -158 116 -176 101 -22 -19 -19 -32 17 -62 l33
-27 -38 -1 c-24 0 -40 -5 -43 -15 -10 -26 14 -42 74 -48 70 -8 119 -24 126
-43 5 -12 -20 -14 -153 -14 -141 0 -160 -2 -165 -17 -11 -27 21 -43 83 -44 31
-1 67 -4 81 -8 23 -7 19 -10 -40 -38 -70 -32 -160 -114 -160 -145 0 -38 30
-31 83 19 61 58 71 64 155 92 87 28 181 38 193 20 5 -8 9 -18 9 -23 0 -18
-140 -145 -172 -155 -18 -6 -45 -22 -61 -36 -54 -51 -22 -81 47 -46 24 11 51
21 60 21 24 0 19 -27 -9 -46 -28 -18 -33 -52 -9 -61 16 -6 65 18 95 46 22 22
49 76 49 99 0 11 29 59 65 107 36 48 68 98 71 111 6 24 18 31 28 16 10 -16
-15 -81 -50 -133 -20 -28 -47 -74 -60 -102 -21 -47 -22 -53 -7 -69 15 -17 17
-17 43 2 41 29 49 25 52 -27 3 -41 6 -48 25 -51 30 -4 43 30 43 111 0 80 13
126 50 172 17 21 35 55 42 77 14 46 32 45 36 -2 3 -28 -2 -39 -29 -61 -31 -25
-32 -28 -31 -104 0 -49 -5 -93 -15 -117 -17 -44 -12 -68 16 -68 27 0 51 42 51
89 0 22 4 42 9 45 21 13 34 -28 35 -112 1 -86 1 -87 26 -87 21 0 26 6 32 40
12 67 9 126 -9 181 -16 50 -15 55 4 116 28 86 55 100 217 107 103 5 121 8 124
23 2 9 -6 25 -17 34 -15 13 -17 22 -10 35 6 12 5 22 -4 31 -15 16 -21 78 -7
78 5 0 10 7 10 15 0 23 -45 29 -81 11 -18 -9 -34 -14 -37 -12 -5 6 31 58 53
76 19 16 19 49 0 57 -19 7 -46 -17 -96 -84 -46 -61 -92 -97 -116 -88 -10 3
-36 29 -58 57 -171 221 -164 205 -174 368 -5 95 -8 105 -26 108 -11 1 -26 -3
-33 -10z"/>
</g>
</svg>
