<?xml version="1.0" standalone="no"?>
<!DOCTYPE svg PUBLIC "-//W3C//DTD SVG 20010904//EN"
 "http://www.w3.org/TR/2001/REC-SVG-20010904/DTD/svg10.dtd">
<svg version="1.0" xmlns="http://www.w3.org/2000/svg"
 width="204.000000pt" height="202.000000pt" viewBox="0 0 204.000000 202.000000"
 preserveAspectRatio="xMidYMid meet">
<metadata>
Created by potrace 1.16, written by Peter Selinger 2001-2019
</metadata>
<g transform="translate(0.000000,202.000000) scale(0.100000,-0.100000)"
fill="#000000" stroke="none">
<path d="M1699 1778 c-79 -84 -180 -191 -225 -238 -44 -47 -101 -107 -125
-134 -44 -47 -46 -48 -87 -41 -32 5 -46 14 -56 33 -31 59 -102 102 -167 102
-33 0 -47 -6 -75 -34 -29 -29 -34 -41 -34 -79 0 -54 26 -91 76 -107 42 -14
111 -7 159 16 29 14 40 14 81 2 l48 -13 -112 -44 c-62 -25 -118 -44 -126 -44
-7 0 -70 32 -139 72 -78 44 -132 69 -139 65 -17 -11 -71 -77 -450 -545 -43
-53 -78 -103 -78 -111 0 -9 7 -21 15 -28 20 -16 32 -5 132 119 205 254 233
284 233 248 0 -7 -59 -86 -131 -175 -133 -165 -149 -197 -98 -197 21 0 47 27
147 151 128 160 152 185 152 164 0 -14 -99 -148 -124 -169 -33 -27 -11 -80 27
-65 6 2 43 45 80 95 62 81 92 104 92 71 0 -6 -44 -65 -97 -130 l-98 -119 -140
-58 -141 -58 -22 22 c-55 51 -147 6 -133 -64 4 -16 15 -37 26 -45 10 -8 20
-28 22 -45 3 -26 19 -41 123 -112 66 -45 128 -82 138 -82 19 -1 28 16 81 154
31 81 35 86 35 53 1 -24 -8 -50 -24 -74 -30 -45 -31 -54 -4 -88 25 -32 77 -36
102 -8 20 22 22 71 4 96 -10 14 -13 50 -9 150 l5 131 61 72 c33 40 66 73 73
73 21 0 16 -9 -42 -75 -57 -64 -68 -98 -37 -110 12 -5 31 8 70 50 28 32 52 61
52 66 0 5 5 9 11 9 12 0 -13 -46 -35 -65 -42 -38 -116 -130 -116 -145 0 -11 9
-24 19 -30 17 -9 30 2 97 83 43 50 81 96 86 101 4 5 10 7 14 4 3 -4 -38 -63
-91 -133 -79 -104 -94 -129 -84 -141 22 -26 52 -10 103 56 172 220 426 556
426 562 0 8 -37 47 -99 101 -24 22 -39 42 -35 47 5 4 53 24 106 44 l96 37 42
-23 42 -23 14 22 c9 11 130 164 270 338 140 175 254 320 254 324 0 19 -63 71
-86 71 -6 0 -76 -69 -155 -152z m-861 -584 c31 -26 72 -60 90 -76 l34 -29 -47
-57 c-51 -62 -70 -76 -85 -67 -18 11 -11 30 35 85 50 61 51 63 31 79 -11 10
-23 1 -62 -44 -26 -30 -55 -55 -65 -55 -32 0 -28 29 11 77 22 26 40 56 40 65
0 33 -34 18 -75 -32 -22 -28 -45 -50 -52 -50 -24 0 -25 23 -2 53 27 38 80 97
86 97 3 0 30 -21 61 -46z m278 -145 l62 -61 -29 -42 c-50 -71 -67 -91 -76 -83
-4 5 -3 11 3 15 22 15 65 82 59 92 -12 19 -33 10 -63 -26 -43 -51 -61 -39 -22
15 32 43 34 71 5 71 -8 0 -27 -18 -41 -40 -30 -46 -34 -47 -58 -21 -16 17 -14
21 35 80 29 33 55 61 58 61 3 0 33 -28 67 -61z m-135 -160 c32 -29 59 -58 59
-66 0 -17 -49 -90 -78 -116 -39 -36 -45 -7 -7 38 36 45 43 69 23 81 -7 5 -26
-10 -49 -36 -47 -55 -64 -45 -20 11 32 40 35 69 7 69 -8 0 -27 -16 -42 -35
-28 -37 -51 -45 -60 -20 -6 15 80 125 98 125 5 0 36 -23 69 -51z"/>
</g>
</svg>
