<?xml version="1.0" standalone="no"?>
<!DOCTYPE svg PUBLIC "-//W3C//DTD SVG 20010904//EN"
 "http://www.w3.org/TR/2001/REC-SVG-20010904/DTD/svg10.dtd">
<svg version="1.0" xmlns="http://www.w3.org/2000/svg"
 width="165.000000pt" height="135.000000pt" viewBox="0 0 165.000000 135.000000"
 preserveAspectRatio="xMidYMid meet">

<g transform="translate(0.000000,135.000000) scale(0.100000,-0.100000)"
fill="#000000" stroke="none">
<path d="M245 1046 c-154 -71 -225 -260 -153 -406 37 -74 100 -137 176 -173
70 -33 150 -39 293 -24 l76 8 11 -53 c31 -140 80 -311 92 -318 19 -12 40 7 40
34 0 12 -18 88 -40 170 -22 81 -40 150 -40 152 0 33 127 -98 140 -144 16 -59
13 -89 -10 -95 -26 -7 -36 -35 -19 -53 15 -14 29 -12 107 17 25 10 29 41 7 59
-8 7 -15 24 -15 39 0 50 -45 124 -109 183 l-63 57 22 46 c12 25 26 45 32 45
22 0 189 -144 208 -179 21 -41 4 -167 -26 -184 -18 -10 -18 -31 1 -47 18 -15
78 -5 100 17 15 14 14 17 0 34 -14 14 -15 26 -7 62 9 46 3 120 -14 148 -28 48
-132 143 -207 189 -36 21 -38 25 -32 59 3 20 17 59 29 87 29 64 49 69 157 40
90 -24 87 -17 50 -118 -12 -32 -21 -74 -21 -95 0 -32 8 -44 59 -94 33 -31 84
-69 113 -84 29 -14 64 -35 78 -46 14 -11 39 -21 55 -22 24 -2 32 4 44 28 8 17
21 35 28 40 15 11 8 45 -9 45 -6 0 -7 7 -4 16 4 9 1 23 -5 30 -19 23 -56 16
-93 -16 -40 -36 -46 -34 -133 27 -39 27 -65 53 -69 69 -7 28 32 144 50 145 43
3 59 9 94 32 22 14 46 40 53 56 17 38 33 39 87 4 47 -31 72 -80 72 -143 0 -39
-1 -40 -35 -40 -73 0 -100 -71 -38 -100 22 -10 33 -22 33 -36 0 -29 36 -38 53
-15 6 10 22 21 33 25 25 8 34 33 23 61 -4 11 -8 56 -8 101 -1 70 -4 86 -30
125 -30 48 -104 104 -150 114 -16 3 -33 16 -39 29 -6 13 -40 40 -76 60 -55 31
-72 36 -102 30 -40 -7 -59 -32 -69 -85 -6 -31 -3 -39 20 -57 15 -12 24 -26 20
-32 -7 -11 -19 -10 -117 15 -64 16 -69 16 -105 -1 -45 -22 -74 -74 -128 -229
-47 -135 -55 -141 -202 -150 -189 -12 -246 1 -323 75 -102 98 -114 233 -30
339 85 107 207 120 271 29 l24 -33 -34 28 c-90 75 -247 1 -277 -130 -29 -133
50 -242 181 -251 51 -3 68 0 115 25 44 23 60 39 83 83 27 51 29 61 23 130 -4
57 -13 90 -38 139 -62 122 -167 162 -283 107z m155 -155 c24 -46 2 -129 -41
-151 -28 -15 -72 12 -67 42 4 27 30 38 28 12 -4 -37 0 -45 22 -42 12 2 29 15
37 30 31 54 -18 110 -82 94 -30 -7 -67 -69 -67 -112 0 -34 59 -94 93 -94 92 0
165 98 151 205 l-5 40 16 -35 c9 -19 18 -59 20 -87 7 -127 -97 -206 -210 -159
-92 39 -100 192 -12 254 41 28 102 30 117 3z"/>
</g>
</svg>
