<?xml version="1.0" standalone="no"?>
<!DOCTYPE svg PUBLIC "-//W3C//DTD SVG 20010904//EN"
 "http://www.w3.org/TR/2001/REC-SVG-20010904/DTD/svg10.dtd">
<svg version="1.0" xmlns="http://www.w3.org/2000/svg"
 width="192.000000pt" height="212.000000pt" viewBox="0 0 192.000000 212.000000"
 preserveAspectRatio="xMidYMid meet">
<metadata>
Created by potrace 1.16, written by Peter Selinger 2001-2019
</metadata>
<g transform="translate(0.000000,212.000000) scale(0.100000,-0.100000)"
fill="#000000" stroke="none">
<path d="M1086 1988 c-2 -13 -21 -128 -41 -256 -20 -127 -42 -248 -48 -267
-12 -41 -31 -47 -23 -7 81 405 89 487 51 487 -17 0 -21 -9 -28 -60 -5 -33 -21
-128 -37 -212 -29 -151 -54 -233 -71 -233 -11 0 -11 4 2 60 5 24 23 121 39
214 22 126 27 173 19 183 -32 38 -46 6 -83 -202 -20 -110 -39 -212 -42 -227
-4 -20 -12 -28 -26 -28 -25 0 -24 3 21 260 16 91 27 168 24 172 -6 11 -41 10
-48 -1 -3 -6 -21 -96 -41 -201 -33 -181 -47 -230 -68 -230 -10 0 -8 8 34 233
16 87 26 165 23 173 -3 8 -15 14 -27 12 -18 -3 -23 -14 -34 -73 -50 -273 -87
-436 -113 -505 -17 -44 -34 -80 -38 -80 -18 0 -121 40 -179 69 -39 19 -71 30
-82 26 -26 -8 -50 -89 -57 -191 -6 -80 -5 -82 21 -99 22 -15 40 -16 118 -10
50 4 98 9 106 13 18 7 24 26 -66 -233 -73 -212 -128 -417 -117 -434 9 -15 45
-14 49 2 16 57 89 277 92 274 2 -1 -12 -93 -31 -203 -19 -109 -35 -205 -35
-212 0 -9 10 -12 26 -10 25 3 29 11 65 143 21 77 43 159 48 183 5 24 12 46 16
50 9 9 -3 -62 -21 -119 -8 -25 -25 -101 -39 -170 -20 -105 -22 -126 -10 -138
29 -29 41 -3 90 185 27 104 59 218 71 254 l24 65 -6 -50 c-3 -27 -21 -140 -39
-250 -31 -182 -32 -201 -18 -212 37 -28 47 5 108 350 45 259 60 312 100 373
25 38 48 59 86 78 29 14 62 26 74 26 23 0 65 -26 65 -41 0 -5 -25 -36 -55 -69
-35 -38 -52 -65 -49 -75 10 -25 26 -18 92 41 34 31 62 52 62 48 0 -4 -27 -36
-61 -71 -63 -65 -72 -95 -32 -101 14 -2 26 4 34 20 15 28 109 128 120 128 19
0 7 -21 -56 -101 -36 -45 -65 -88 -65 -95 0 -7 9 -16 21 -19 24 -8 59 28 144
146 31 43 62 80 71 83 36 14 146 4 320 -29 227 -43 246 -44 274 -8 11 15 19
34 18 42 -4 22 -46 27 -54 7 -8 -21 -35 -20 -189 8 -151 28 -201 41 -235 62
-23 14 -19 15 65 9 301 -18 333 -19 360 -1 33 21 31 59 -2 64 -13 2 -23 -1
-23 -7 0 -14 -179 -14 -269 -1 -62 9 -103 26 -205 85 -42 24 -64 30 -145 34
l-95 6 -24 35 c-20 29 -23 43 -19 88 3 28 17 78 31 109 36 77 128 598 113 636
-10 26 -46 21 -51 -5z"/>
</g>
</svg>
