<?xml version="1.0" standalone="no"?>
<!DOCTYPE svg PUBLIC "-//W3C//DTD SVG 20010904//EN"
 "http://www.w3.org/TR/2001/REC-SVG-20010904/DTD/svg10.dtd">
<svg version="1.0" xmlns="http://www.w3.org/2000/svg"
 width="101.000000pt" height="97.000000pt" viewBox="0 0 101.000000 97.000000"
 preserveAspectRatio="xMidYMid meet">
<metadata>
Created by potrace 1.16, written by Peter Selinger 2001-2019
</metadata>
<g transform="translate(0.000000,97.000000) scale(0.100000,-0.100000)"
fill="#000000" stroke="none">
<path d="M576 794 c-42 -37 -76 -70 -76 -75 0 -5 10 -29 22 -55 l23 -46 -35
-30 c-19 -17 -50 -44 -69 -61 -30 -27 -38 -29 -85 -24 -28 3 -80 17 -114 31
-35 14 -68 23 -75 20 -14 -6 -97 -141 -97 -158 0 -7 7 -21 15 -32 9 -13 12
-32 8 -56 -7 -50 3 -53 130 -37 56 7 104 13 107 12 3 0 8 -17 11 -38 3 -20 12
-40 18 -44 7 -4 37 -4 67 2 103 17 139 -1 246 -127 18 -22 29 -27 46 -22 30
10 28 46 -3 76 -14 13 -23 25 -21 27 2 3 29 -3 60 -13 53 -17 57 -17 74 -1 23
24 6 49 -41 61 -48 12 -47 22 3 29 50 6 70 21 63 47 -4 16 -14 20 -47 20 -39
0 -40 1 -17 13 28 14 34 26 22 45 -6 10 -28 11 -104 3 -53 -5 -101 -12 -107
-16 -5 -3 -12 -21 -16 -40 -5 -27 -11 -35 -28 -35 -29 0 -42 10 -51 40 -4 14
-19 42 -31 62 -13 21 -24 46 -24 56 0 16 116 122 133 122 3 0 20 -27 37 -59
28 -52 37 -60 75 -71 50 -14 65 -8 65 24 0 15 -10 27 -31 37 l-30 14 57 40
c65 45 70 53 50 80 -14 19 -14 19 -51 0 -20 -11 -43 -28 -52 -37 -9 -10 -23
-18 -31 -18 -8 0 15 23 52 50 67 51 76 66 54 88 -15 15 -33 15 -50 0 -14 -13
-62 -48 -85 -62 -8 -4 -13 -2 -13 7 0 8 25 34 55 58 56 45 66 67 40 89 -12 10
-25 5 -71 -34 -31 -26 -59 -44 -62 -42 -2 3 11 18 29 33 72 59 81 71 69 93 -6
11 -17 20 -25 20 -8 0 -48 -30 -89 -66z"/>
</g>
</svg>
