<?xml version="1.0" standalone="no"?>
<!DOCTYPE svg PUBLIC "-//W3C//DTD SVG 20010904//EN"
 "http://www.w3.org/TR/2001/REC-SVG-20010904/DTD/svg10.dtd">
<svg version="1.0" xmlns="http://www.w3.org/2000/svg"
 width="143.000000pt" height="155.000000pt" viewBox="0 0 143.000000 155.000000"
 preserveAspectRatio="xMidYMid meet">

<g transform="translate(0.000000,155.000000) scale(0.100000,-0.100000)"
fill="#000000" stroke="none">
<path d="M1154 1428 c-16 -13 -40 -32 -54 -44 -82 -70 -173 -144 -179 -144 -3
-1 -37 -29 -75 -64 l-69 -62 14 -37 c7 -20 11 -39 8 -41 -3 -3 -146 -12 -319
-21 -382 -19 -400 -21 -400 -42 0 -14 14 -15 122 -10 68 4 222 12 342 18 121
5 222 10 225 11 18 2 19 -7 5 -53 -11 -37 -39 -80 -97 -151 -45 -55 -93 -115
-107 -132 -14 -18 -47 -58 -73 -89 -48 -55 -49 -56 -73 -40 -30 19 -56 4 -36
-20 17 -20 5 -27 -44 -27 -45 0 -66 -16 -43 -31 12 -8 12 -11 -1 -19 -8 -5
-21 -10 -27 -10 -17 0 -16 -19 1 -26 8 -3 12 -13 9 -25 -8 -29 28 -25 83 10
43 27 126 120 289 325 119 151 120 152 139 137 28 -23 40 -4 -149 -233 -58
-70 -105 -130 -105 -132 0 -14 -99 -106 -114 -106 -9 0 -16 -5 -16 -11 0 -5
-4 -8 -9 -5 -4 3 -16 -1 -26 -8 -19 -14 -13 -36 11 -36 8 0 14 -7 14 -16 0
-11 6 -15 20 -11 15 4 19 0 17 -15 -7 -69 60 19 78 101 4 20 32 64 64 102 55
66 70 84 201 247 67 84 97 100 92 49 -3 -29 7 -34 25 -16 16 16 43 4 43 -20 0
-22 -24 -56 -170 -246 -58 -75 -113 -150 -123 -166 -12 -19 -30 -31 -53 -35
-31 -6 -50 -34 -23 -34 7 0 8 -7 4 -18 -4 -9 -9 -23 -12 -29 -3 -7 2 -13 10
-13 14 0 124 131 169 200 8 14 25 35 36 48 11 12 50 63 88 112 67 89 84 104
84 75 0 -11 -203 -327 -301 -467 -32 -46 -19 -87 14 -46 l18 23 16 -23 c8 -12
24 -22 34 -22 24 0 24 5 -2 47 -12 19 -18 41 -14 51 4 12 236 366 263 402 2 3
26 -18 53 -47 l49 -52 0 -70 c0 -39 3 -71 6 -71 3 0 14 5 25 10 17 9 18 18 13
65 -5 41 -4 55 6 55 9 0 11 -19 8 -70 -4 -67 -3 -70 19 -70 23 0 23 2 23 110
0 82 4 119 16 142 12 23 13 33 4 42 -8 8 -16 5 -31 -14 l-19 -25 10 29 c8 21
8 32 0 40 -11 11 -26 -2 -49 -42 -6 -11 -16 -8 -47 13 -21 14 -40 28 -42 30
-2 1 -5 34 -8 71 -2 38 -14 101 -26 139 -19 63 -29 77 -95 141 -40 39 -73 75
-73 81 0 6 48 51 108 99 59 49 109 91 112 94 3 3 39 32 80 65 82 65 91 75 84
87 -8 13 -19 10 -50 -14z m-44 -884 c0 -8 -5 -12 -10 -9 -6 4 -8 11 -5 16 9
14 15 11 15 -7z m40 0 c0 -8 -5 -12 -10 -9 -6 4 -8 11 -5 16 9 14 15 11 15 -7z"/>
</g>
</svg>
