<?xml version="1.0" standalone="no"?>
<!DOCTYPE svg PUBLIC "-//W3C//DTD SVG 20010904//EN"
 "http://www.w3.org/TR/2001/REC-SVG-20010904/DTD/svg10.dtd">
<svg version="1.0" xmlns="http://www.w3.org/2000/svg"
 width="152.000000pt" height="173.000000pt" viewBox="0 0 152.000000 173.000000"
 preserveAspectRatio="xMidYMid meet">
<metadata>
Created by potrace 1.16, written by Peter Selinger 2001-2019
</metadata>
<g transform="translate(0.000000,173.000000) scale(0.100000,-0.100000)"
fill="#000000" stroke="none">
<path d="M1102 1528 c-29 -57 -94 -182 -146 -278 -83 -156 -96 -175 -124 -182
-17 -5 -40 -20 -50 -33 l-20 -25 -114 117 c-297 309 -313 324 -331 317 -47
-17 -1 -75 331 -415 117 -121 60 -90 -78 42 -74 71 -141 128 -149 127 -8 -2
-19 -11 -25 -21 -9 -15 9 -37 126 -155 165 -164 153 -152 142 -152 -5 0 -27
17 -49 37 -22 21 -63 59 -91 86 -52 48 -76 53 -89 19 -4 -11 20 -42 82 -104
48 -48 84 -90 80 -94 -3 -3 -30 8 -59 26 -38 24 -56 30 -68 23 -29 -19 -22
-41 20 -69 49 -33 46 -45 -4 -14 -20 12 -40 19 -46 15 -21 -13 -9 -44 26 -65
52 -32 34 -37 -20 -5 -51 30 -79 27 -74 -7 2 -14 22 -33 58 -55 47 -28 61 -32
100 -27 l45 6 -115 -115 c-63 -64 -115 -123 -115 -133 0 -9 8 -22 17 -28 15
-9 33 4 118 89 55 55 100 96 100 91 0 -5 -57 -67 -127 -137 -70 -71 -131 -136
-136 -144 -10 -18 8 -45 29 -45 8 0 71 59 141 130 69 72 128 128 131 126 2 -3
-73 -86 -167 -186 -131 -138 -172 -186 -169 -203 2 -13 11 -23 24 -25 15 -2
58 38 175 164 85 92 162 176 172 187 9 11 20 17 23 14 7 -7 -4 -22 -94 -131
-54 -65 -61 -78 -52 -96 6 -11 18 -20 28 -20 10 0 61 55 121 130 57 72 108
130 112 130 13 0 11 -24 -2 -37 -14 -14 -2 -53 17 -53 9 0 24 5 34 10 13 7 21
7 25 0 10 -17 44 -11 54 9 6 10 8 20 6 23 -3 2 8 3 24 0 38 -5 48 23 26 74
-21 51 -41 72 -97 100 -27 13 -48 29 -48 34 0 16 5 13 98 -44 67 -42 91 -52
104 -45 10 5 18 13 18 18 0 10 -80 72 -162 126 -32 21 -58 42 -58 48 0 5 9 3
20 -4 11 -8 45 -32 77 -54 62 -42 126 -90 154 -115 10 -8 31 -23 47 -33 28
-16 32 -16 47 -1 9 9 14 21 13 28 -2 6 -77 65 -165 131 -147 109 -185 145
-151 145 10 0 107 -67 421 -292 75 -54 102 -58 102 -16 0 26 -78 86 -412 317
-51 36 -93 70 -93 77 0 7 11 24 25 38 26 26 32 64 15 96 -8 16 16 70 136 294
80 151 144 283 142 293 -2 11 -14 19 -28 21 -22 2 -30 -8 -78 -100z"/>
</g>
</svg>
