<?xml version="1.0" standalone="no"?>
<!DOCTYPE svg PUBLIC "-//W3C//DTD SVG 20010904//EN"
 "http://www.w3.org/TR/2001/REC-SVG-20010904/DTD/svg10.dtd">
<svg version="1.0" xmlns="http://www.w3.org/2000/svg"
 width="171.000000pt" height="128.000000pt" viewBox="0 0 171.000000 128.000000"
 preserveAspectRatio="xMidYMid meet">

<g transform="translate(0.000000,128.000000) scale(0.100000,-0.100000)"
fill="#000000" stroke="none">
<path d="M243 1170 c-15 -6 -23 -18 -23 -34 0 -28 7 -31 95 -40 28 -3 84 -19
125 -35 91 -37 110 -37 277 -9 101 17 135 20 144 11 14 -14 68 -216 69 -256 0
-47 -19 -26 -45 46 -25 72 -58 112 -102 123 -15 4 -69 -1 -121 -11 -109 -22
-140 -17 -272 39 -84 35 -153 46 -165 25 -13 -20 4 -59 26 -59 11 0 79 -23
151 -51 142 -55 140 -54 286 -28 86 16 99 10 119 -47 27 -78 -17 -123 -66 -67
-117 134 -334 70 -349 -103 -15 -176 220 -269 342 -134 20 22 36 45 36 52 0 6
3 9 6 5 10 -9 -24 -113 -42 -128 -10 -8 -49 -13 -112 -14 -87 -2 -102 -5 -147
-31 -45 -26 -62 -29 -164 -34 -92 -4 -116 -8 -124 -22 -8 -12 -7 -21 2 -32 11
-13 36 -16 130 -16 109 0 120 2 176 30 54 27 69 30 140 28 54 -2 90 2 110 12
47 24 92 100 111 191 14 62 21 79 33 77 20 -4 19 -29 -4 -138 -19 -94 -51
-179 -69 -182 -6 -1 -67 -2 -136 -3 -124 0 -126 -1 -200 -37 -88 -44 -98 -46
-211 -47 -52 -1 -92 -6 -103 -14 -22 -16 -32 -68 -26 -137 5 -53 6 -55 35 -55
29 0 30 1 35 57 3 31 9 60 13 64 5 5 45 9 90 9 74 0 92 5 180 43 l99 43 116
-3 c110 -3 119 -2 151 21 43 31 75 101 103 223 12 54 25 98 29 98 7 0 65 -97
108 -183 34 -67 73 -107 106 -107 15 0 49 8 75 17 46 16 49 16 107 -5 80 -29
194 -30 241 -2 35 21 38 31 20 59 -8 14 -17 17 -32 11 -61 -22 -124 -20 -207
6 -83 26 -83 26 -141 9 -47 -15 -60 -16 -73 -5 -20 16 -106 200 -99 211 13 22
41 5 69 -43 17 -28 42 -60 57 -71 26 -19 32 -20 96 -7 68 12 70 12 108 -14 34
-23 48 -26 125 -26 60 0 88 4 91 13 12 30 -4 37 -83 37 -72 0 -82 3 -122 31
l-45 31 -56 -16 c-67 -20 -88 -15 -116 24 -39 54 -19 81 45 60 47 -16 184 -4
192 17 10 25 -14 36 -76 34 -54 -1 -61 1 -61 18 0 17 8 20 48 23 39 3 47 6 47
23 0 17 -7 20 -45 20 -41 0 -45 2 -45 25 0 22 5 25 39 28 21 2 43 -1 49 -7 14
-14 44 -14 52 0 11 17 -23 46 -68 58 -37 10 -52 9 -126 -14 -77 -23 -121 -31
-121 -21 0 1 5 17 11 34 11 33 34 43 83 35 23 -3 49 2 82 18 40 18 72 23 167
27 93 3 120 7 124 19 10 26 -18 33 -127 33 -83 0 -114 -5 -149 -20 -24 -11
-65 -20 -93 -20 -75 0 -109 -21 -141 -86 -16 -32 -33 -54 -40 -51 -14 5 -11
25 14 92 34 89 48 100 126 101 37 1 105 9 150 19 80 17 83 17 170 -3 92 -21
123 -17 123 16 0 31 -14 39 -87 56 -83 18 -183 21 -233 5 -19 -6 -76 -11 -127
-12 -109 -2 -126 -14 -174 -114 -30 -62 -49 -80 -49 -45 0 26 -38 144 -53 163
-32 42 -109 50 -227 24 -101 -22 -164 -19 -260 15 -96 34 -165 44 -197 30z"/>
</g>
</svg>
