<?xml version="1.0" standalone="no"?>
<!DOCTYPE svg PUBLIC "-//W3C//DTD SVG 20010904//EN"
 "http://www.w3.org/TR/2001/REC-SVG-20010904/DTD/svg10.dtd">
<svg version="1.0" xmlns="http://www.w3.org/2000/svg"
 width="512.000000pt" height="512.000000pt" viewBox="0 0 512.000000 512.000000"
 preserveAspectRatio="xMidYMid meet">

<g transform="translate(0.000000,512.000000) scale(0.100000,-0.100000)"
fill="#000000" stroke="none">
<path d="M2465 3826 c-59 -28 -77 -46 -105 -108 l-21 -47 21 -918 c21 -901 22
-919 43 -963 64 -132 250 -132 314 0 21 44 22 62 43 963 l21 918 -21 47 c-11
25 -28 55 -38 66 -28 31 -113 66 -162 66 -26 0 -66 -10 -95 -24z"/>
<path d="M2480 1337 c-53 -17 -133 -102 -149 -160 -31 -109 20 -225 124 -280
84 -45 210 -22 276 50 89 95 90 225 2 323 -65 72 -158 97 -253 67z"/>
</g>
</svg>
