<?xml version="1.0" standalone="no"?>
<!DOCTYPE svg PUBLIC "-//W3C//DTD SVG 20010904//EN"
 "http://www.w3.org/TR/2001/REC-SVG-20010904/DTD/svg10.dtd">
<svg version="1.0" xmlns="http://www.w3.org/2000/svg"
 width="980.000000pt" height="676.000000pt" viewBox="0 0 980.000000 676.000000"
 preserveAspectRatio="xMidYMid meet">

<g transform="translate(0.000000,676.000000) scale(0.100000,-0.100000)"
fill="#000000" stroke="none">
<path d="M4295 6534 c-5 -1 -48 -5 -95 -8 -82 -6 -95 -6 -122 -6 -7 1 -26 -1
-43 -4 -63 -10 -122 -17 -170 -21 -27 -2 -50 -4 -50 -5 0 -2 -90 -10 -142 -13
-24 -1 -43 -5 -43 -8 0 -4 -21 -7 -47 -8 -72 -2 -157 -9 -184 -16 -23 -5 -89
-10 -257 -20 -39 -2 -76 -6 -81 -9 -4 -3 -46 -8 -92 -11 -46 -3 -102 -8 -124
-11 -40 -5 -116 -12 -145 -15 -27 -2 -134 -19 -160 -25 -14 -3 -50 -10 -80
-16 -30 -6 -59 -14 -65 -17 -5 -4 -25 -8 -42 -9 -18 -1 -72 -16 -120 -33 -49
-17 -102 -34 -118 -38 -17 -4 -42 -14 -55 -22 -14 -8 -29 -14 -35 -15 -25 -2
-135 -49 -135 -56 0 -5 -5 -8 -11 -8 -16 0 -100 -41 -121 -59 -10 -8 -18 -11
-18 -8 0 4 -28 -11 -62 -33 -33 -22 -65 -40 -69 -40 -14 0 -211 -143 -216
-157 -3 -7 -10 -13 -17 -13 -6 0 -29 -16 -50 -35 -22 -19 -43 -35 -48 -35 -4
0 -8 -7 -8 -16 0 -9 -9 -18 -20 -21 -11 -3 -20 -9 -20 -13 0 -4 -22 -29 -50
-56 -27 -27 -50 -53 -50 -57 0 -4 -12 -20 -28 -36 -44 -46 -102 -123 -102
-137 0 -7 -10 -20 -22 -28 -12 -9 -19 -16 -14 -16 5 0 3 -8 -5 -17 -16 -21
-24 -34 -72 -128 -45 -88 -71 -149 -87 -200 -7 -22 -16 -50 -21 -63 -5 -13 -9
-34 -9 -47 0 -13 -4 -26 -9 -30 -6 -3 -10 -13 -10 -23 0 -9 -3 -30 -5 -47 -24
-156 -29 -219 -29 -380 -1 -155 8 -334 20 -405 3 -19 7 -50 7 -67 1 -18 5 -33
9 -33 5 0 6 -4 3 -9 -3 -5 1 -32 10 -60 8 -28 12 -56 9 -61 -3 -6 -2 -10 3
-10 5 0 13 -24 16 -52 4 -29 11 -57 15 -63 5 -5 12 -28 16 -50 4 -22 10 -44
15 -50 4 -5 13 -28 20 -50 7 -22 25 -64 41 -93 16 -29 29 -60 29 -68 0 -8 5
-14 10 -14 6 0 10 -7 10 -15 0 -8 5 -15 10 -15 6 0 10 -5 10 -11 0 -6 14 -29
31 -50 17 -21 28 -39 24 -39 -3 0 1 -7 9 -16 9 -9 28 -32 43 -52 51 -69 128
-157 193 -220 36 -34 103 -100 149 -145 46 -45 89 -82 95 -82 6 0 11 -5 11
-12 0 -6 10 -23 22 -37 13 -14 20 -26 15 -26 -4 0 1 -7 12 -15 11 -8 16 -20
12 -30 -3 -9 -2 -14 3 -11 5 3 15 -2 22 -11 10 -12 10 -14 2 -9 -9 5 -13 -1
-13 -18 0 -14 -5 -26 -11 -26 -5 0 -7 -5 -4 -10 3 -6 -1 -13 -10 -16 -9 -4
-14 -13 -11 -20 3 -8 1 -14 -4 -14 -6 0 -19 -8 -29 -18 -42 -38 -95 -77 -103
-74 -5 1 -11 -5 -14 -13 -3 -8 -10 -12 -15 -9 -5 3 -9 1 -9 -4 0 -5 -24 -24
-52 -43 -49 -31 -196 -171 -243 -229 -153 -192 -221 -465 -180 -720 10 -62 44
-179 62 -215 29 -57 33 -65 33 -75 0 -6 8 -23 19 -38 10 -15 37 -57 60 -94 51
-80 170 -205 264 -278 68 -53 221 -150 236 -150 5 0 19 -8 32 -18 21 -17 216
-101 244 -106 5 -1 33 -12 60 -25 28 -12 91 -34 140 -47 50 -14 99 -29 110
-34 11 -5 39 -11 63 -14 24 -3 47 -8 52 -11 5 -3 26 -7 47 -10 21 -2 85 -10
143 -19 163 -24 195 -26 350 -26 164 1 244 5 290 15 37 8 67 13 131 19 25 3
59 10 75 17 16 6 46 12 66 14 21 1 45 8 53 15 8 7 15 10 15 6 0 -5 40 8 105
34 11 4 36 14 55 21 79 29 329 158 363 187 9 8 17 12 17 8 0 -4 10 3 23 15 12
12 34 26 48 33 14 6 41 23 60 38 19 15 62 48 97 73 34 26 62 51 62 56 0 5 5 9
11 9 6 0 16 6 23 12 8 7 35 31 62 53 26 22 82 74 124 115 91 90 204 191 228
204 9 5 19 12 22 16 3 4 23 13 45 20 22 7 43 18 47 24 5 7 8 7 8 1 0 -6 12
-12 26 -13 15 -1 32 -6 39 -12 6 -5 15 -7 18 -3 4 3 7 1 7 -6 0 -7 5 -9 10 -6
6 3 10 -1 10 -10 0 -9 4 -14 9 -11 9 6 37 -15 106 -76 16 -14 46 -40 65 -57
19 -17 56 -48 83 -68 26 -21 47 -41 47 -45 0 -4 5 -8 10 -8 6 0 22 -11 36 -25
14 -14 28 -25 33 -25 4 0 16 -8 27 -18 29 -26 104 -74 149 -97 22 -11 46 -26
53 -32 7 -7 25 -16 40 -20 15 -3 32 -13 39 -22 7 -9 13 -13 13 -8 0 4 18 -2
41 -13 42 -22 265 -99 309 -107 14 -2 43 -9 65 -14 55 -14 113 -26 159 -33 21
-4 42 -8 46 -11 10 -6 146 -18 213 -19 26 -1 47 -4 47 -7 0 -6 456 -2 525 5
91 9 151 16 175 22 14 3 39 7 55 9 75 11 185 34 240 51 33 10 62 18 65 19 3 0
19 5 35 11 45 17 119 38 128 36 4 -1 7 3 7 9 0 5 5 7 10 4 6 -3 10 -1 10 4 0
6 5 11 12 11 12 0 209 96 268 131 19 12 37 25 38 30 2 5 8 7 13 3 5 -3 9 -1 9
4 0 6 11 13 24 16 13 3 38 19 56 36 18 16 35 30 39 30 4 0 20 13 36 30 16 16
34 30 41 30 6 0 15 7 18 16 3 8 10 12 16 9 5 -3 10 -2 10 3 0 5 9 19 20 32 11
13 20 20 20 16 0 -8 57 41 90 77 14 16 45 50 70 75 25 26 63 71 85 99 21 29
43 53 47 53 4 0 8 6 8 14 0 8 4 16 8 18 17 7 137 210 168 283 22 52 47 111 68
158 9 20 15 41 11 46 -3 5 2 16 10 25 9 8 14 17 13 18 -4 4 22 89 34 112 9 18
33 119 79 336 35 162 36 170 45 235 8 61 11 80 14 80 1 0 4 20 5 45 4 60 13
138 21 174 9 42 12 503 3 551 -4 22 -9 69 -13 105 -3 36 -8 76 -11 90 -4 14
-8 43 -11 65 -5 48 -31 170 -70 325 -2 8 -22 67 -44 130 -23 63 -42 120 -44
125 -3 11 -19 48 -46 110 -55 121 -70 159 -70 171 0 8 -4 14 -10 14 -5 0 -10
5 -10 10 0 6 -7 27 -17 48 -9 20 -15 40 -15 45 1 4 -3 7 -8 7 -6 0 -10 9 -10
20 0 11 -4 20 -9 20 -5 0 -15 17 -22 38 -6 20 -15 39 -19 42 -4 3 -29 44 -55
93 -27 48 -52 87 -57 87 -4 0 -8 5 -8 10 0 13 -68 118 -92 142 -10 10 -18 21
-18 26 0 4 -14 23 -30 42 -16 19 -30 41 -30 48 0 7 -4 10 -10 7 -5 -3 -10 -3
-10 2 0 14 -193 227 -274 302 -106 98 -121 111 -132 111 -7 0 -16 9 -19 20 -3
11 -10 20 -15 20 -5 0 -16 8 -25 17 -10 9 -47 39 -84 65 -36 27 -73 54 -81 61
-8 7 -28 18 -43 26 -15 8 -27 18 -27 23 0 4 -6 8 -13 8 -8 0 -39 18 -71 40
-31 22 -59 40 -61 40 -2 0 -27 13 -55 30 -28 16 -62 33 -75 36 -14 3 -25 10
-25 16 0 5 -4 7 -9 3 -5 -3 -16 2 -24 10 -9 8 -19 15 -23 15 -3 0 -34 12 -68
26 -33 14 -79 33 -101 41 -22 9 -49 20 -60 25 -12 5 -27 10 -35 12 -8 1 -25 7
-37 14 -12 7 -26 11 -30 11 -4 -1 -21 3 -38 10 -16 7 -41 14 -55 16 -14 2 -26
4 -27 6 -2 1 -6 2 -10 3 -5 2 -28 8 -53 16 -25 7 -49 14 -55 16 -5 1 -30 7
-55 14 -25 6 -52 13 -60 14 -8 2 -26 6 -40 9 -24 6 -171 35 -215 43 -11 2 -40
8 -65 13 -25 5 -63 12 -85 15 -22 4 -53 8 -70 11 -16 3 -50 8 -75 11 -25 3
-62 9 -82 15 -21 5 -64 12 -95 14 -68 5 -178 20 -178 25 0 0 -18 3 -40 5 -22
3 -56 7 -75 9 -19 3 -57 7 -85 11 -27 3 -66 8 -85 11 -19 3 -73 7 -120 9 -47
2 -92 6 -100 9 -8 2 -44 7 -80 10 -36 3 -103 9 -150 13 -47 4 -111 7 -142 8
-32 0 -58 2 -58 5 0 5 -577 9 -595 4z"/>
</g>
</svg>
